<mxfile host="app.diagrams.net" agent="Mozilla/5.0 (Windows NT 10.0; Win64; x64) AppleWebKit/537.36 (KHTML, like Gecko) Chrome/129.0.0.0 Safari/537.36" version="24.7.17">
  <diagram name="1 oldal" id="UQ52mti2zfaWJaJjkGit">
    <mxGraphModel dx="1793" dy="975" grid="1" gridSize="10" guides="1" tooltips="1" connect="1" arrows="1" fold="1" page="1" pageScale="1" pageWidth="827" pageHeight="1169" math="0" shadow="0">
      <root>
        <mxCell id="0" />
        <mxCell id="1" parent="0" />
        <mxCell id="xL5nu9abrnv6k3wNUGrg-5" value="Termék" style="rounded=0;whiteSpace=wrap;html=1;fillColor=#fff2cc;strokeColor=#d6b656;" vertex="1" parent="1">
          <mxGeometry x="120" y="410" width="120" height="60" as="geometry" />
        </mxCell>
        <mxCell id="xL5nu9abrnv6k3wNUGrg-16" value="" style="edgeStyle=orthogonalEdgeStyle;rounded=0;orthogonalLoop=1;jettySize=auto;html=1;entryX=0;entryY=0.5;entryDx=0;entryDy=0;" edge="1" parent="1" source="xL5nu9abrnv6k3wNUGrg-6" target="xL5nu9abrnv6k3wNUGrg-7">
          <mxGeometry relative="1" as="geometry">
            <mxPoint x="520" y="440" as="targetPoint" />
          </mxGeometry>
        </mxCell>
        <mxCell id="xL5nu9abrnv6k3wNUGrg-6" value="T-GY" style="rhombus;whiteSpace=wrap;html=1;fillColor=#f8cecc;strokeColor=#b85450;" vertex="1" parent="1">
          <mxGeometry x="360" y="400" width="80" height="80" as="geometry" />
        </mxCell>
        <mxCell id="xL5nu9abrnv6k3wNUGrg-7" value="Gyártó" style="rounded=0;whiteSpace=wrap;html=1;fillColor=#fff2cc;strokeColor=#d6b656;" vertex="1" parent="1">
          <mxGeometry x="560" y="410" width="120" height="60" as="geometry" />
        </mxCell>
        <mxCell id="xL5nu9abrnv6k3wNUGrg-9" value="" style="endArrow=classic;html=1;rounded=0;entryX=1;entryY=0.5;entryDx=0;entryDy=0;exitX=0;exitY=0.5;exitDx=0;exitDy=0;" edge="1" parent="1" source="xL5nu9abrnv6k3wNUGrg-6" target="xL5nu9abrnv6k3wNUGrg-5">
          <mxGeometry width="50" height="50" relative="1" as="geometry">
            <mxPoint x="350" y="440" as="sourcePoint" />
            <mxPoint x="400" y="390" as="targetPoint" />
          </mxGeometry>
        </mxCell>
        <mxCell id="xL5nu9abrnv6k3wNUGrg-10" value="" style="endArrow=classic;html=1;rounded=0;" edge="1" parent="1">
          <mxGeometry width="50" height="50" relative="1" as="geometry">
            <mxPoint x="340" y="439.86" as="sourcePoint" />
            <mxPoint x="260" y="439.86" as="targetPoint" />
          </mxGeometry>
        </mxCell>
        <mxCell id="xL5nu9abrnv6k3wNUGrg-11" value="név" style="ellipse;whiteSpace=wrap;html=1;fillColor=#dae8fc;strokeColor=#6c8ebf;" vertex="1" parent="1">
          <mxGeometry x="135" y="500" width="90" height="50" as="geometry" />
        </mxCell>
        <mxCell id="xL5nu9abrnv6k3wNUGrg-12" value="ear" style="ellipse;whiteSpace=wrap;html=1;fillColor=#dae8fc;strokeColor=#6c8ebf;" vertex="1" parent="1">
          <mxGeometry x="240" y="500" width="90" height="50" as="geometry" />
        </mxCell>
        <mxCell id="xL5nu9abrnv6k3wNUGrg-13" value="&lt;u&gt;tkód&lt;/u&gt;" style="ellipse;whiteSpace=wrap;html=1;fillColor=#dae8fc;strokeColor=#6c8ebf;" vertex="1" parent="1">
          <mxGeometry x="30" y="500" width="90" height="50" as="geometry" />
        </mxCell>
        <mxCell id="xL5nu9abrnv6k3wNUGrg-17" value="név" style="ellipse;whiteSpace=wrap;html=1;fillColor=#dae8fc;strokeColor=#6c8ebf;" vertex="1" parent="1">
          <mxGeometry x="575" y="500" width="90" height="50" as="geometry" />
        </mxCell>
        <mxCell id="xL5nu9abrnv6k3wNUGrg-18" value="telephely" style="ellipse;whiteSpace=wrap;html=1;fillColor=#dae8fc;strokeColor=#6c8ebf;" vertex="1" parent="1">
          <mxGeometry x="680" y="500" width="90" height="50" as="geometry" />
        </mxCell>
        <mxCell id="xL5nu9abrnv6k3wNUGrg-19" value="&lt;u&gt;adószám&lt;/u&gt;" style="ellipse;whiteSpace=wrap;html=1;fillColor=#dae8fc;strokeColor=#6c8ebf;" vertex="1" parent="1">
          <mxGeometry x="470" y="500" width="90" height="50" as="geometry" />
        </mxCell>
        <mxCell id="xL5nu9abrnv6k3wNUGrg-25" value="" style="endArrow=none;html=1;rounded=0;" edge="1" parent="1">
          <mxGeometry width="50" height="50" relative="1" as="geometry">
            <mxPoint x="80" y="500" as="sourcePoint" />
            <mxPoint x="180" y="470" as="targetPoint" />
          </mxGeometry>
        </mxCell>
        <mxCell id="xL5nu9abrnv6k3wNUGrg-26" value="" style="endArrow=none;html=1;rounded=0;" edge="1" parent="1">
          <mxGeometry width="50" height="50" relative="1" as="geometry">
            <mxPoint x="180" y="500" as="sourcePoint" />
            <mxPoint x="180" y="470" as="targetPoint" />
          </mxGeometry>
        </mxCell>
        <mxCell id="xL5nu9abrnv6k3wNUGrg-27" value="" style="endArrow=none;html=1;rounded=0;exitX=0.5;exitY=0;exitDx=0;exitDy=0;" edge="1" parent="1" source="xL5nu9abrnv6k3wNUGrg-12">
          <mxGeometry width="50" height="50" relative="1" as="geometry">
            <mxPoint x="320" y="500" as="sourcePoint" />
            <mxPoint x="180" y="470" as="targetPoint" />
          </mxGeometry>
        </mxCell>
        <mxCell id="xL5nu9abrnv6k3wNUGrg-28" value="" style="endArrow=none;html=1;rounded=0;entryX=0.5;entryY=1;entryDx=0;entryDy=0;exitX=0.5;exitY=0;exitDx=0;exitDy=0;" edge="1" parent="1" source="xL5nu9abrnv6k3wNUGrg-19" target="xL5nu9abrnv6k3wNUGrg-7">
          <mxGeometry width="50" height="50" relative="1" as="geometry">
            <mxPoint x="480" y="500" as="sourcePoint" />
            <mxPoint x="530" y="450" as="targetPoint" />
          </mxGeometry>
        </mxCell>
        <mxCell id="xL5nu9abrnv6k3wNUGrg-29" value="" style="endArrow=none;html=1;rounded=0;" edge="1" parent="1">
          <mxGeometry width="50" height="50" relative="1" as="geometry">
            <mxPoint x="619.57" y="500" as="sourcePoint" />
            <mxPoint x="619.57" y="470" as="targetPoint" />
          </mxGeometry>
        </mxCell>
        <mxCell id="xL5nu9abrnv6k3wNUGrg-30" value="" style="endArrow=none;html=1;rounded=0;" edge="1" parent="1">
          <mxGeometry width="50" height="50" relative="1" as="geometry">
            <mxPoint x="720" y="500" as="sourcePoint" />
            <mxPoint x="620" y="470" as="targetPoint" />
          </mxGeometry>
        </mxCell>
        <mxCell id="xL5nu9abrnv6k3wNUGrg-31" value="postai cím" style="ellipse;whiteSpace=wrap;html=1;fillColor=#dae8fc;strokeColor=#6c8ebf;" vertex="1" parent="1">
          <mxGeometry x="585" y="320" width="90" height="50" as="geometry" />
        </mxCell>
        <mxCell id="xL5nu9abrnv6k3wNUGrg-32" style="edgeStyle=orthogonalEdgeStyle;rounded=0;orthogonalLoop=1;jettySize=auto;html=1;exitX=0.5;exitY=1;exitDx=0;exitDy=0;strokeColor=default;endArrow=none;endFill=0;" edge="1" parent="1" source="xL5nu9abrnv6k3wNUGrg-31">
          <mxGeometry relative="1" as="geometry">
            <mxPoint x="630" y="410" as="targetPoint" />
          </mxGeometry>
        </mxCell>
        <mxCell id="xL5nu9abrnv6k3wNUGrg-33" value="város" style="ellipse;whiteSpace=wrap;html=1;fillColor=#dae8fc;strokeColor=#6c8ebf;" vertex="1" parent="1">
          <mxGeometry x="550" y="250" width="72" height="40" as="geometry" />
        </mxCell>
        <mxCell id="xL5nu9abrnv6k3wNUGrg-36" value="utca" style="ellipse;whiteSpace=wrap;html=1;fillColor=#dae8fc;strokeColor=#6c8ebf;" vertex="1" parent="1">
          <mxGeometry x="640" y="250" width="72" height="40" as="geometry" />
        </mxCell>
        <mxCell id="xL5nu9abrnv6k3wNUGrg-37" value="házszám" style="ellipse;whiteSpace=wrap;html=1;fillColor=#dae8fc;strokeColor=#6c8ebf;" vertex="1" parent="1">
          <mxGeometry x="730" y="250" width="72" height="40" as="geometry" />
        </mxCell>
        <mxCell id="xL5nu9abrnv6k3wNUGrg-38" value="" style="endArrow=none;html=1;rounded=0;entryX=0.343;entryY=0.979;entryDx=0;entryDy=0;entryPerimeter=0;exitX=0.5;exitY=0;exitDx=0;exitDy=0;" edge="1" parent="1" source="xL5nu9abrnv6k3wNUGrg-31" target="xL5nu9abrnv6k3wNUGrg-36">
          <mxGeometry width="50" height="50" relative="1" as="geometry">
            <mxPoint x="640" y="320" as="sourcePoint" />
            <mxPoint x="690" y="270" as="targetPoint" />
          </mxGeometry>
        </mxCell>
        <mxCell id="xL5nu9abrnv6k3wNUGrg-39" value="ir.szám" style="ellipse;whiteSpace=wrap;html=1;fillColor=#dae8fc;strokeColor=#6c8ebf;" vertex="1" parent="1">
          <mxGeometry x="458" y="250" width="72" height="40" as="geometry" />
        </mxCell>
        <mxCell id="xL5nu9abrnv6k3wNUGrg-40" value="" style="endArrow=none;html=1;rounded=0;entryX=0.71;entryY=0.956;entryDx=0;entryDy=0;entryPerimeter=0;" edge="1" parent="1" target="xL5nu9abrnv6k3wNUGrg-33">
          <mxGeometry width="50" height="50" relative="1" as="geometry">
            <mxPoint x="630" y="320" as="sourcePoint" />
            <mxPoint x="670" y="270" as="targetPoint" />
          </mxGeometry>
        </mxCell>
        <mxCell id="xL5nu9abrnv6k3wNUGrg-41" value="" style="endArrow=none;html=1;rounded=0;entryX=0.954;entryY=0.72;entryDx=0;entryDy=0;entryPerimeter=0;exitX=0.5;exitY=0;exitDx=0;exitDy=0;" edge="1" parent="1" source="xL5nu9abrnv6k3wNUGrg-31" target="xL5nu9abrnv6k3wNUGrg-39">
          <mxGeometry width="50" height="50" relative="1" as="geometry">
            <mxPoint x="585" y="340" as="sourcePoint" />
            <mxPoint x="635" y="290" as="targetPoint" />
          </mxGeometry>
        </mxCell>
        <mxCell id="xL5nu9abrnv6k3wNUGrg-42" value="" style="endArrow=none;html=1;rounded=0;entryX=0.053;entryY=0.74;entryDx=0;entryDy=0;entryPerimeter=0;exitX=0.5;exitY=0;exitDx=0;exitDy=0;" edge="1" parent="1" source="xL5nu9abrnv6k3wNUGrg-31" target="xL5nu9abrnv6k3wNUGrg-37">
          <mxGeometry width="50" height="50" relative="1" as="geometry">
            <mxPoint x="675" y="345" as="sourcePoint" />
            <mxPoint x="725" y="295" as="targetPoint" />
          </mxGeometry>
        </mxCell>
        <mxCell id="xL5nu9abrnv6k3wNUGrg-44" value="Alkatrész" style="rounded=0;whiteSpace=wrap;html=1;fillColor=#fff2cc;strokeColor=#d6b656;" vertex="1" parent="1">
          <mxGeometry x="120" y="720" width="120" height="60" as="geometry" />
        </mxCell>
        <mxCell id="xL5nu9abrnv6k3wNUGrg-45" value="T-A" style="rhombus;whiteSpace=wrap;html=1;fillColor=#f8cecc;strokeColor=#b85450;" vertex="1" parent="1">
          <mxGeometry x="90" y="585" width="80" height="80" as="geometry" />
        </mxCell>
        <mxCell id="xL5nu9abrnv6k3wNUGrg-46" value="" style="endArrow=classic;html=1;rounded=0;exitX=0.5;exitY=0;exitDx=0;exitDy=0;entryX=0.083;entryY=1;entryDx=0;entryDy=0;entryPerimeter=0;" edge="1" parent="1" source="xL5nu9abrnv6k3wNUGrg-45" target="xL5nu9abrnv6k3wNUGrg-5">
          <mxGeometry width="50" height="50" relative="1" as="geometry">
            <mxPoint x="132.2" y="578.35" as="sourcePoint" />
            <mxPoint x="130" y="472" as="targetPoint" />
          </mxGeometry>
        </mxCell>
        <mxCell id="xL5nu9abrnv6k3wNUGrg-47" value="" style="endArrow=classic;html=1;rounded=0;" edge="1" parent="1">
          <mxGeometry width="50" height="50" relative="1" as="geometry">
            <mxPoint x="130" y="540" as="sourcePoint" />
            <mxPoint x="130" y="480" as="targetPoint" />
          </mxGeometry>
        </mxCell>
        <mxCell id="xL5nu9abrnv6k3wNUGrg-48" value="" style="endArrow=classic;html=1;rounded=0;" edge="1" parent="1">
          <mxGeometry width="50" height="50" relative="1" as="geometry">
            <mxPoint x="129.75" y="665" as="sourcePoint" />
            <mxPoint x="130" y="720" as="targetPoint" />
          </mxGeometry>
        </mxCell>
        <mxCell id="xL5nu9abrnv6k3wNUGrg-50" value="" style="endArrow=classic;html=1;rounded=0;" edge="1" parent="1">
          <mxGeometry width="50" height="50" relative="1" as="geometry">
            <mxPoint x="130" y="680" as="sourcePoint" />
            <mxPoint x="130" y="710" as="targetPoint" />
          </mxGeometry>
        </mxCell>
        <mxCell id="xL5nu9abrnv6k3wNUGrg-51" value="név" style="ellipse;whiteSpace=wrap;html=1;fillColor=#dae8fc;strokeColor=#6c8ebf;" vertex="1" parent="1">
          <mxGeometry x="105" y="810" width="90" height="50" as="geometry" />
        </mxCell>
        <mxCell id="xL5nu9abrnv6k3wNUGrg-52" value="&lt;u&gt;akód&lt;/u&gt;" style="ellipse;whiteSpace=wrap;html=1;fillColor=#dae8fc;strokeColor=#6c8ebf;" vertex="1" parent="1">
          <mxGeometry y="810" width="90" height="50" as="geometry" />
        </mxCell>
        <mxCell id="xL5nu9abrnv6k3wNUGrg-53" value="" style="endArrow=none;html=1;rounded=0;" edge="1" parent="1">
          <mxGeometry width="50" height="50" relative="1" as="geometry">
            <mxPoint x="50" y="810" as="sourcePoint" />
            <mxPoint x="150" y="780" as="targetPoint" />
          </mxGeometry>
        </mxCell>
        <mxCell id="xL5nu9abrnv6k3wNUGrg-54" value="" style="endArrow=none;html=1;rounded=0;" edge="1" parent="1">
          <mxGeometry width="50" height="50" relative="1" as="geometry">
            <mxPoint x="150" y="810" as="sourcePoint" />
            <mxPoint x="150" y="780" as="targetPoint" />
          </mxGeometry>
        </mxCell>
        <mxCell id="xL5nu9abrnv6k3wNUGrg-55" value="" style="ellipse;whiteSpace=wrap;html=1;fillColor=#dae8fc;strokeColor=#6c8ebf;" vertex="1" parent="1">
          <mxGeometry y="415" width="90" height="50" as="geometry" />
        </mxCell>
        <mxCell id="xL5nu9abrnv6k3wNUGrg-56" value="egység_db" style="ellipse;whiteSpace=wrap;html=1;fillColor=#dae8fc;strokeColor=#6c8ebf;" vertex="1" parent="1">
          <mxGeometry x="4.57" y="420.08" width="80.86" height="39.84" as="geometry" />
        </mxCell>
        <mxCell id="xL5nu9abrnv6k3wNUGrg-58" value="" style="endArrow=none;html=1;rounded=0;entryX=0;entryY=0.5;entryDx=0;entryDy=0;" edge="1" parent="1" target="xL5nu9abrnv6k3wNUGrg-5">
          <mxGeometry width="50" height="50" relative="1" as="geometry">
            <mxPoint x="90" y="440" as="sourcePoint" />
            <mxPoint x="140" y="390" as="targetPoint" />
          </mxGeometry>
        </mxCell>
      </root>
    </mxGraphModel>
  </diagram>
</mxfile>
